<svg xmlns="http://www.w3.org/2000/svg" data-name="Favicon black" viewBox="0 0 650 650"><path d="M562.56 325c0 37.89-6.7 74.78-19.54 109.3-1.06 2.84 2.53 5.09 4.61 2.88L647.71 330.8a8.464 8.464 0 0 0 0-11.59L547.63 212.83c-2.08-2.21-5.66.03-4.61 2.88 12.84 34.52 19.54 71.41 19.54 109.3ZM426.1 148.5c-46.76-46.76-108.81-72.69-174.88-73.1-64.81-.41-127.5 24.48-174.28 69.35C27.06 192.59-.35 257.36 0 326.31c.34 66.25 27.18 129.9 74.35 176.42S183.52 574.6 249.6 574.6c63.18 0 123.46-23.65 169.73-66.62.42-.39.82-.79 1.24-1.18-13.35-7.78-25.78-16.49-37.29-26.08-35.26-29.41-61.84-67.26-79.27-113.11-19.83-52.18-25.6-108.22-28.84-161.03-1.43-23.43-35.76-23.4-51.44-17.21-21.55 8.51-43.36 38.39-50.25 59.5-45.92 140.69 44.87 219.33 164.78 259.31-27.11 13.15-57.58 20.46-89.77 20.29-112.28-.6-202.35-91.18-202.35-203.46 0-112.37 91.1-203.47 203.47-203.47 32.21 0 62.66 7.49 89.72 20.82l.24.41c12.92 13.84 16.95 33.38 18.45 58.13 5.71 93.83 18.8 186.23 107.21 235.81 3.26 1.83 7.4.52 9.03-2.84 16.33-33.71 24.94-71.19 24.94-108.85 0-66.67-25.96-129.35-73.11-176.5Z"/></svg>